<?xml version="1.0" encoding="UTF-8"?>
<svg id="Layer_2" data-name="Layer 2" xmlns="http://www.w3.org/2000/svg" viewBox="0 0 471.25 95.1">
  <defs>
    <style>
      .cls-1 {
        fill: #6ca94e;
      }
    </style>
  </defs>
  <g id="Layer_2-2" data-name="Layer 2">
    <g id="Layer_1-2" data-name="Layer 1">
      <g>
        <path class="cls-1" d="M0,10.42c0-1.37.25-2.66.75-3.86.5-1.2,1.18-2.24,2.04-3.12.86-.87,1.87-1.56,3.04-2.06,1.16-.5,2.42-.74,3.75-.74s2.58.25,3.75.74c1.16.5,2.17,1.18,3,2.06.83.88,1.49,1.92,1.96,3.12.48,1.2.71,2.49.71,3.86v21.77c.76-.9,1.75-1.72,2.96-2.48,1.21-.75,2.55-1.42,4-1.99,1.45-.56,2.95-1.01,4.5-1.34,1.55-.33,3.04-.5,4.46-.5,4.76,0,9.26.91,13.5,2.73,4.24,1.82,7.93,4.3,11.07,7.45,3.14,3.14,5.63,6.82,7.47,11.03,1.83,4.21,2.75,8.7,2.75,13.47s-.92,9.25-2.75,13.44c-1.83,4.19-4.32,7.83-7.47,10.96-3.14,3.12-6.84,5.59-11.07,7.41-4.24,1.82-8.74,2.73-13.5,2.73s-9.32-.91-13.54-2.73c-4.21-1.82-7.92-4.29-11.11-7.41-3.19-3.12-5.71-6.77-7.54-10.96-1.83-4.19-2.75-8.66-2.75-13.44V10.42ZM19.08,60.56c0,2.18.42,4.21,1.25,6.1.83,1.89,1.98,3.54,3.43,4.96,1.45,1.42,3.15,2.53,5.07,3.33,1.93.8,3.97,1.2,6.11,1.2s4.24-.4,6.15-1.2c1.9-.8,3.57-1.92,5-3.33,1.43-1.42,2.56-3.07,3.39-4.96.83-1.89,1.25-3.92,1.25-6.1s-.42-4.21-1.25-6.1c-.83-1.89-1.96-3.54-3.39-4.96-1.43-1.42-3.1-2.53-5-3.33-1.9-.81-3.96-1.21-6.15-1.21s-4.18.4-6.11,1.21c-1.93.8-3.62,1.91-5.07,3.33-1.45,1.42-2.59,3.07-3.43,4.96-.83,1.89-1.25,3.92-1.25,6.1Z"/>
        <path class="cls-1" d="M79.59,10.07c0-1.42.27-2.73.82-3.94.55-1.2,1.28-2.27,2.21-3.19.92-.92,2.01-1.64,3.24-2.16,1.23-.52,2.54-.78,3.92-.78s2.68.26,3.92.78c1.23.52,2.31,1.24,3.24,2.16.92.92,1.66,1.99,2.21,3.19.54,1.21.82,2.52.82,3.94s-.28,2.67-.82,3.9c-.55,1.23-1.28,2.31-2.21,3.23-.92.92-2.01,1.65-3.24,2.17-1.24.52-2.54.78-3.92.78s-2.68-.26-3.92-.78-2.32-1.24-3.24-2.17c-.92-.92-1.66-1.99-2.21-3.23-.54-1.23-.82-2.53-.82-3.9ZM80.16,35.24c0-1.27.26-2.48.78-3.61.52-1.14,1.22-2.13,2.1-2.98.88-.85,1.91-1.53,3.1-2.02,1.19-.5,2.44-.74,3.77-.74s2.49.25,3.63.74c1.14.5,2.12,1.17,2.95,2.02s1.48,1.85,1.96,2.98c.47,1.13.71,2.34.71,3.61v50.49c0,1.27-.25,2.48-.75,3.61-.5,1.14-1.18,2.13-2.03,2.98-.85.85-1.85,1.53-2.99,2.02-1.14.5-2.35.75-3.63.75s-2.5-.25-3.67-.75c-1.16-.5-2.19-1.17-3.06-2.02-.88-.85-1.58-1.84-2.1-2.98-.52-1.14-.78-2.34-.78-3.61v-50.49Z"/>
        <path class="cls-1" d="M109.88,60.56c0-4.77.92-9.27,2.75-13.47,1.83-4.21,4.34-7.88,7.5-11.03,3.17-3.14,6.86-5.63,11.07-7.45,4.22-1.82,8.73-2.73,13.54-2.73s9.33.91,13.57,2.73c4.24,1.82,7.93,4.3,11.07,7.45,3.15,3.14,5.63,6.82,7.47,11.03,1.83,4.21,2.75,8.7,2.75,13.47s-.92,9.25-2.75,13.44c-1.83,4.19-4.32,7.83-7.47,10.96-3.14,3.12-6.84,5.59-11.07,7.41-4.24,1.82-8.76,2.73-13.57,2.73s-9.32-.91-13.54-2.73c-4.22-1.82-7.91-4.29-11.07-7.41s-5.67-6.77-7.5-10.96c-1.83-4.19-2.75-8.66-2.75-13.44ZM128.89,60.56c0,2.18.42,4.21,1.25,6.1.84,1.89,1.98,3.54,3.44,4.96,1.45,1.42,3.14,2.53,5.05,3.33,1.91.8,3.94,1.2,6.09,1.2s4.26-.4,6.19-1.2c1.94-.8,3.62-1.92,5.05-3.33,1.43-1.42,2.57-3.07,3.4-4.96.84-1.89,1.26-3.92,1.26-6.1s-.42-4.21-1.26-6.1c-.83-1.89-1.97-3.54-3.4-4.96-1.43-1.42-3.11-2.53-5.05-3.33-1.93-.81-4-1.21-6.19-1.21s-4.18.4-6.09,1.21c-1.91.8-3.59,1.91-5.05,3.33-1.45,1.42-2.6,3.07-3.44,4.96-.83,1.89-1.25,3.92-1.25,6.1Z"/>
        <path class="cls-1" d="M186.9,59.56c0-4.63.89-8.99,2.68-13.08,1.79-4.09,4.22-7.66,7.3-10.71,3.07-3.05,6.66-5.46,10.76-7.23,4.1-1.77,8.49-2.66,13.16-2.66s9.18.89,13.38,2.66c4.2,1.77,7.89,4.19,11.08,7.23,3.19,3.05,5.72,6.62,7.58,10.71,1.86,4.09,2.79,8.45,2.79,13.08v25.53c0,1.33-.24,2.54-.72,3.65s-1.14,2.08-1.97,2.91c-.84.83-1.83,1.48-2.98,1.95-1.15.47-2.36.71-3.66.71s-2.59-.24-3.77-.71c-1.17-.47-2.2-1.12-3.08-1.95-.89-.83-1.58-1.8-2.08-2.91s-.75-2.33-.75-3.65v-25.46c-.05-2.03-.52-3.95-1.4-5.74-.88-1.8-2.06-3.37-3.54-4.71-1.48-1.35-3.16-2.41-5.05-3.19-1.89-.78-3.85-1.17-5.91-1.17s-3.97.37-5.77,1.1c-1.79.73-3.34,1.75-4.65,3.05-1.31,1.3-2.36,2.82-3.15,4.57-.79,1.75-1.2,3.64-1.25,5.67v25.88c0,1.33-.24,2.54-.71,3.65s-1.14,2.08-1.99,2.91c-.86.83-1.84,1.48-2.95,1.95-1.12.47-2.32.71-3.6.71s-2.51-.24-3.7-.71c-1.19-.47-2.23-1.12-3.13-1.95-.9-.83-1.61-1.8-2.14-2.91-.52-1.11-.78-2.33-.78-3.65v-25.53Z"/>
        <path class="cls-1" d="M268.63,10.07c0-1.42.27-2.73.82-3.94.55-1.2,1.28-2.27,2.21-3.19.92-.92,2.01-1.64,3.24-2.16,1.23-.52,2.54-.78,3.92-.78s2.68.26,3.92.78c1.23.52,2.31,1.24,3.24,2.16.92.92,1.66,1.99,2.21,3.19.54,1.21.82,2.52.82,3.94s-.28,2.67-.82,3.9c-.55,1.23-1.28,2.31-2.21,3.23-.92.92-2.01,1.65-3.24,2.17-1.24.52-2.54.78-3.92.78s-2.68-.26-3.92-.78c-1.23-.52-2.32-1.24-3.24-2.17-.92-.92-1.66-1.99-2.21-3.23-.54-1.23-.82-2.53-.82-3.9ZM269.2,35.24c0-1.27.26-2.48.78-3.61.52-1.14,1.22-2.13,2.1-2.98.88-.85,1.91-1.53,3.1-2.02,1.19-.5,2.44-.74,3.77-.74s2.49.25,3.63.74c1.14.5,2.12,1.17,2.95,2.02s1.48,1.85,1.96,2.98c.47,1.13.71,2.34.71,3.61v50.49c0,1.27-.25,2.48-.75,3.61-.5,1.14-1.18,2.13-2.03,2.98-.85.85-1.85,1.53-2.99,2.02-1.14.5-2.35.75-3.63.75s-2.5-.25-3.67-.75c-1.16-.5-2.19-1.17-3.06-2.02-.88-.85-1.58-1.84-2.1-2.98-.52-1.14-.78-2.34-.78-3.61v-50.49Z"/>
        <path class="cls-1" d="M299.71,39.29c-.57-1.28-.86-2.55-.86-3.83s.24-2.42.71-3.58c.47-1.16,1.13-2.17,1.96-3.05.83-.87,1.83-1.58,3-2.13,1.17-.54,2.44-.82,3.82-.82,1.81,0,3.5.5,5.07,1.49,1.57.99,2.76,2.37,3.57,4.11l13.15,31.13,13.08-31.06c.71-1.75,1.87-3.12,3.46-4.11,1.6-.99,3.3-1.49,5.11-1.49,1.38,0,2.65.26,3.82.78,1.17.52,2.18,1.23,3.04,2.13.86.9,1.52,1.92,2,3.05.48,1.13.71,2.29.71,3.47.05.66-.01,1.33-.18,1.98-.17.66-.39,1.33-.68,1.99l-21.57,49.28c-.67,1.46-1.69,2.76-3.07,3.87-1.38,1.11-3.12,1.71-5.21,1.81-2,0-3.84-.5-5.5-1.49-1.67-.99-2.91-2.39-3.71-4.19l-21.72-49.35Z"/>
        <path class="cls-1" d="M371.23,10.07c0-1.42.27-2.73.82-3.94.55-1.2,1.28-2.27,2.21-3.19.92-.92,2.01-1.64,3.24-2.16,1.23-.52,2.54-.78,3.92-.78s2.68.26,3.92.78c1.23.52,2.31,1.24,3.24,2.16.92.92,1.66,1.99,2.21,3.19.54,1.21.82,2.52.82,3.94s-.28,2.67-.82,3.9c-.55,1.23-1.28,2.31-2.21,3.23-.92.92-2.01,1.65-3.24,2.17-1.24.52-2.54.78-3.92.78s-2.68-.26-3.92-.78-2.32-1.24-3.24-2.17c-.92-.92-1.66-1.99-2.21-3.23-.54-1.23-.82-2.53-.82-3.9ZM371.8,35.24c0-1.27.26-2.48.78-3.61.52-1.14,1.22-2.13,2.1-2.98.88-.85,1.91-1.53,3.1-2.02,1.19-.5,2.44-.74,3.77-.74s2.49.25,3.63.74c1.14.5,2.12,1.17,2.95,2.02s1.48,1.85,1.96,2.98c.47,1.13.71,2.34.71,3.61v50.49c0,1.27-.25,2.48-.75,3.61-.5,1.14-1.18,2.13-2.03,2.98-.85.85-1.85,1.53-2.99,2.02-1.14.5-2.35.75-3.63.75s-2.5-.25-3.67-.75c-1.16-.5-2.19-1.17-3.06-2.02-.88-.85-1.58-1.84-2.1-2.98-.52-1.14-.78-2.34-.78-3.61v-50.49Z"/>
        <path class="cls-1" d="M401.52,60.56c0-4.77.92-9.27,2.75-13.47,1.83-4.21,4.34-7.88,7.5-11.03,3.17-3.14,6.86-5.63,11.07-7.45,4.22-1.82,8.73-2.73,13.54-2.73,4.09,0,7.38.51,9.86,1.52,2.48,1.02,4.47,2.52,6,4.51V10.5c0-1.37.24-2.66.71-3.87.48-1.2,1.13-2.24,1.97-3.12s1.82-1.56,2.96-2.06,2.4-.74,3.79-.74,2.58.25,3.75.74,2.18,1.18,3.04,2.06c.85.88,1.53,1.91,2.03,3.12.5,1.2.75,2.5.75,3.87v50.06c0,4.77-.92,9.25-2.75,13.44-1.83,4.19-4.32,7.83-7.47,10.96-3.14,3.12-6.84,5.59-11.07,7.41-4.24,1.82-8.76,2.73-13.57,2.73s-9.32-.91-13.54-2.73c-4.22-1.82-7.91-4.29-11.07-7.41-3.17-3.12-5.67-6.77-7.5-10.96-1.83-4.19-2.75-8.66-2.75-13.44ZM420.52,60.56c0,2.18.42,4.21,1.25,6.1.84,1.89,1.98,3.54,3.44,4.96,1.45,1.42,3.14,2.53,5.05,3.33,1.91.8,3.94,1.2,6.09,1.2s4.26-.4,6.19-1.2c1.94-.8,3.62-1.92,5.05-3.33,1.43-1.42,2.57-3.07,3.4-4.96.84-1.89,1.26-3.92,1.26-6.1s-.42-4.21-1.26-6.1c-.83-1.89-1.97-3.54-3.4-4.96-1.43-1.42-3.11-2.53-5.05-3.33-1.93-.81-4-1.21-6.19-1.21s-4.18.4-6.09,1.21c-1.91.8-3.59,1.91-5.05,3.33-1.45,1.42-2.6,3.07-3.44,4.96-.83,1.89-1.25,3.92-1.25,6.1Z"/>
      </g>
    </g>
  </g>
</svg>